<?xml version="1.0" encoding="UTF-8"?>
<svg id="Ebene_2" data-name="Ebene 2" xmlns="http://www.w3.org/2000/svg" viewBox="0 0 500.86 88.88">
  <defs>
    <style>
      .cls-1 {
        fill: #eaeaea;
      }

      .cls-1, .cls-2 {
        stroke-width: 0px;
      }

      .cls-2 {
        fill: #6bdb87;
      }
    </style>
  </defs>
  <g id="Ebene_1-2" data-name="Ebene 1">
    <g>
      <g>
        <path class="cls-2" d="M73.87,50.58c-.92,1.45-4.81,3.51-9.37,5.15-3.44,1.24-7.06,1.58-10.61,2.26.02.88.72,1.03,1.19,1.35,1.75,1.2,3.47,2.44,4.91,4.03.48.53,1.42,1.09,1.01,1.82-.35.6-1.37.33-2.09.25-4.15-.5-7.9-2.15-11.53-4.12-.45-.24-.95-.84-1.46-.44-.47.35-.2,1.04-.13,1.55.6,4.21,1.49,8.34,3.58,12.12-3.22,1.22-4.45.64-5.38-2.38-1.18-3.8-1.92-7.68-2.32-12.08-5.41,4.6-11.26,4.98-17.85,3.69,3.13-3.03,6.67-4.52,10.37-5.92-7.24-1.7-13.5-5.13-19.17-9.75,6.15-.87,11.99.2,17.89,1.91-5.05-5.62-9.68-11.41-11.28-19.07,7.65,3.97,14.19,9.23,19.67,16.59-.38-2.75-.72-4.95-.99-7.16-1.06-8.79.87-17.14,3.75-25.35.14-.41.21-1.07.87-.91.6.14.69.79.86,1.3,1.52,4.64,2.33,9.42,2.91,14.25.57,4.86.38,9.7-.29,14.54-.09.67-.09,1.35.1,2.2,4.22-8.71,10.76-15.05,19.76-19.88-2.81,9.1-6.03,17.29-12.96,24.09,6.42-.27,12.5-1.64,18.56-.04Z"/>
        <path class="cls-2" d="M82.78,0H6.1C2.73,0,0,2.73,0,6.1v76.68c0,3.37,2.73,6.1,6.1,6.1h76.68c3.37,0,6.1-2.73,6.1-6.1V6.1c0-3.37-2.73-6.1-6.1-6.1ZM78.95,54.88c-3.23,2.53-6.89,4.2-10.68,5.61-1.54.57-1.88,1.05-.8,2.5,1.41,1.88,1.15,3.94.09,5.99-1.04,2.02-2.64,2.76-4.85,2.72-2.61-.04-5.21-.07-7.73-.81-1.12-.33-1.44-.16-1.19,1.12,1.11,5.61-4.03,10.6-10.91,8.45-1.93-.6-3.18-2.09-3.69-4.09-.47-1.86-.91-3.72-1.3-5.59-.22-1.06-.59-1.53-1.79-1.19-3.76,1.07-7.57.9-11.4.43-2.83-.35-5.23-1.28-6.37-4.09-1.14-2.8-.09-5.06,2.32-6.95-3.36-2.03-6.57-3.98-9.57-6.24-1.44-1.07-2.45-2.38-2.71-4.18-.62-4.35.89-6.26,5.28-6.69,1.22-.12,2.44-.3,3.67-.34,1.2-.04,1.38-.51.96-1.54-.98-2.41-1.97-4.81-2.83-7.27-1.17-3.37-.73-5.39,1.36-7.07,2.21-1.79,5.46-2.04,8.09-.47,2.82,1.69,5.59,3.46,8.19,5.47.26.2.56.34,1.07.64.66-3.5.99-6.88,1.82-10.17.8-3.12,1.67-6.21,2.91-9.18,1.14-2.74,3.35-4.14,6.27-4.02,2.82.11,4.88,1.59,5.82,4.37,1.57,4.68,2.75,9.46,3.33,14.37.19,1.63.65,1.87,1.92.79,2.62-2.22,5.47-4.1,8.47-5.77,2.33-1.3,4.61-1.17,6.75.37,2.09,1.5,2.9,3.6,2.37,6.12-1.03,4.93-3.01,9.52-5.26,13.98-.83,1.66-.4,1.9,1.22,1.89,1.98-.02,3.97.13,5.93.39,2.68.35,4.55,1.89,5.31,4.5.72,2.41-.06,4.38-2.07,5.95Z"/>
        <path class="cls-2" d="M73.87,50.58c-.92,1.45-4.81,3.51-9.37,5.15-3.44,1.24-7.06,1.58-10.61,2.26.02.88.72,1.03,1.19,1.35,1.75,1.2,3.47,2.44,4.91,4.03.48.53,1.42,1.09,1.01,1.82-.35.6-1.37.33-2.09.25-4.15-.5-7.9-2.15-11.53-4.12-.45-.24-.95-.84-1.46-.44-.47.35-.2,1.04-.13,1.55.6,4.21,1.49,8.34,3.58,12.12-3.22,1.22-4.45.64-5.38-2.38-1.18-3.8-1.92-7.68-2.32-12.08-5.41,4.6-11.26,4.98-17.85,3.69,3.13-3.03,6.67-4.52,10.37-5.92-7.24-1.7-13.5-5.13-19.17-9.75,6.15-.87,11.99.2,17.89,1.91-5.05-5.62-9.68-11.41-11.28-19.07,7.65,3.97,14.19,9.23,19.67,16.59-.38-2.75-.72-4.95-.99-7.16-1.06-8.79.87-17.14,3.75-25.35.14-.41.21-1.07.87-.91.6.14.69.79.86,1.3,1.52,4.64,2.33,9.42,2.91,14.25.57,4.86.38,9.7-.29,14.54-.09.67-.09,1.35.1,2.2,4.22-8.71,10.76-15.05,19.76-19.88-2.81,9.1-6.03,17.29-12.96,24.09,6.42-.27,12.5-1.64,18.56-.04Z"/>
      </g>
      <g>
        <path class="cls-2" d="M152.65,61.42c0,10.35-7.76,17.72-19.61,17.72-7.92,0-14.27-3.37-18.35-8.55l7.69-5.41c2.12,2.59,5.33,5.33,10.75,5.33,6.51,0,10.12-3.84,10.12-9.1v-2.27c-1.88,2.43-5.88,4.47-11.61,4.47-11.37,0-19.53-8.16-19.53-20.31s8.16-20.16,20.24-20.16,20.31,8.16,20.31,20.31v17.96ZM132.41,31.77c-6.59,0-10.9,4.31-10.9,11.61s4.31,11.61,10.9,11.61,10.82-4.31,10.82-11.61-4.31-11.61-10.82-11.61Z"/>
        <path class="cls-2" d="M176.41,23.07v8.63c-6.27,0-10.04,3.06-10.04,9.33v21.96h-9.41v-21.96c0-11.92,7.53-17.96,19.45-17.96Z"/>
        <path class="cls-2" d="M197.27,23.22c12.16,0,20.24,8.08,20.24,20.16s-8.08,20.31-20.24,20.31-20.31-8.16-20.31-20.31,8.16-20.16,20.31-20.16ZM197.2,55.06c6.59,0,10.9-4.31,10.9-11.61s-4.31-11.61-10.9-11.61-10.82,4.31-10.82,11.61,4.31,11.61,10.82,11.61Z"/>
        <path class="cls-2" d="M216.25,23.77h10.12l9.57,26.59,9.57-26.59h10.12l-2.9,7.69,6.75,18.9,9.57-26.59h10.12l-14.82,39.21h-9.73l-6.9-18.35-6.9,18.35h-9.73l-14.82-39.21Z"/>
        <path class="cls-1" d="M278.29,78.67v-35.37c0-12.63,9.02-20.16,20.47-20.16s20.08,8.08,20.08,20.16-8.16,20.31-19.61,20.31c-5.65,0-9.65-2.04-11.53-4.47v19.53h-9.41ZM298.52,31.77c-6.51,0-10.82,4.31-10.82,11.61s4.31,11.61,10.82,11.61,10.9-4.31,10.9-11.61-4.31-11.61-10.9-11.61Z"/>
        <path class="cls-1" d="M362.51,43.54v19.45h-9.41v-3.76c-1.88,2.43-5.88,4.47-11.61,4.47-11.37,0-19.53-8.16-19.53-20.31s8.16-20.16,20.23-20.16,20.31,8.16,20.31,20.31ZM342.28,31.85c-6.59,0-10.9,4.31-10.9,11.61s4.31,11.61,10.9,11.61,10.82-4.31,10.82-11.61-4.31-11.61-10.82-11.61Z"/>
        <path class="cls-1" d="M403.3,39.61v23.37h-9.41v-23.14c0-5.57-4.08-8.08-8.63-8.08s-8.63,2.51-8.63,8.08v23.14h-9.41v-23.37c0-6.82,5.1-16.55,18.04-16.55s18.04,9.73,18.04,16.55Z"/>
        <path class="cls-1" d="M412.7,7.22c2.9,0,5.18,2.35,5.18,5.18,0,2.98-2.27,5.25-5.18,5.25s-5.18-2.27-5.18-5.25c0-2.82,2.27-5.18,5.18-5.18ZM408,23.77h9.41v39.21h-9.41V23.77Z"/>
        <path class="cls-1" d="M440.94,23.22c12.16,0,20.24,8.08,20.24,20.16s-8.08,20.31-20.24,20.31-20.31-8.16-20.31-20.31,8.16-20.16,20.31-20.16ZM440.86,55.06c6.59,0,10.9-4.31,10.9-11.61s-4.31-11.61-10.9-11.61-10.82,4.31-10.82,11.61,4.31,11.61,10.82,11.61Z"/>
        <path class="cls-1" d="M500.86,39.61v23.37h-9.41v-23.14c0-5.57-4.08-8.08-8.63-8.08s-8.63,2.51-8.63,8.08v23.14h-9.41v-23.37c0-6.82,5.1-16.55,18.04-16.55s18.04,9.73,18.04,16.55Z"/>
      </g>
      <path class="cls-2" d="M418.14,12.35c.1,7.07-11.01,7.07-10.91,0-.1-7.07,11.01-7.07,10.91,0Z"/>
    </g>
  </g>
</svg>